<?xml version="1.0" encoding="utf-8"?>
<!-- Svg Vector Icons : http://www.onlinewebfonts.com/icon -->
<!DOCTYPE svg PUBLIC "-//W3C//DTD SVG 1.1//EN" "http://www.w3.org/Graphics/SVG/1.1/DTD/svg11.dtd">
<svg version="1.1" xmlns="http://www.w3.org/2000/svg" xmlns:xlink="http://www.w3.org/1999/xlink" x="0px" y="0px" viewBox="0 0 1000 1000" enable-background="new 0 0 1000 1000" xml:space="preserve">
<metadata> Svg Vector Icons : http://www.onlinewebfonts.com/icon </metadata>
<g><g transform="translate(0.000000,441.000000) scale(0.100000,-0.100000)"><path d="M4625.8,4277.2c-563.5-122.5-1013.5-478.9-1267.4-1002.3c-336.3-694.9-198.2-1503.5,354.2-2069.2c71.3-73.5,127-135.9,122.5-138.1c-2.2-2.2-62.4-31.2-131.4-62.4c-193.8-91.3-336.3-233.9-434.3-429.9c-75.7-155.9-82.4-182.6-82.4-363.1c0-180.4,6.7-207.1,82.4-360.8c51.2-104.7,120.3-202.7,184.9-262.8c95.8-89.1,100.2-98,75.7-153.7c-86.9-189.3-262.8-400.9-668.2-804.1c-343-340.8-452.2-463.3-510.1-572.4c-62.4-122.5-80.2-140.3-135.9-140.3c-120.3,0-351.9-89.1-485.6-187.1c-356.4-262.9-472.2-708.3-282.9-1093.7c55.7-113.6,180.4-262.8,274-327.4l53.5-35.6l-153.7-182.6c-300.7-358.6-496.7-761.8-496.7-1022.4c0-162.6,55.7-298.4,167.1-400.9c182.7-169.3-71.3-158.1,3708.6-158.1s3525.9-11.1,3708.6,158.1c111.4,102.5,167.1,238.3,167.1,400.9c0,258.4-198.3,663.8-498.9,1024.6l-151.5,180.4l53.5,35.6c93.6,64.6,218.3,213.8,274,327.4c189.3,385.3,73.5,830.8-282.9,1093.7c-133.6,98-365.3,187.1-485.6,187.1c-55.7,0-73.5,17.8-135.9,140.3c-57.9,109.2-167.1,231.7-510.1,572.4c-405.4,403.2-581.3,614.8-668.2,804.1c-24.5,55.7-20.1,64.6,75.7,153.7c64.6,60.1,133.6,158.1,184.9,262.8c75.7,153.7,82.4,180.4,82.4,360.8c0,180.4-6.7,207.1-82.4,363.1c-98,196-240.5,338.6-434.3,429.9c-69.1,31.2-129.2,60.1-131.4,62.4c-4.5,2.2,51.2,64.6,122.5,138.1c329.6,338.5,505.6,732.8,530.1,1200.5c44.5,770.7-447.7,1523.5-1173.8,1793C5345.2,4308.4,4924.3,4341.8,4625.8,4277.2z M5403.2,3800.6c300.7-93.6,612.5-340.8,775.1-612.5c164.8-276.2,227.2-710.5,147-1026.8c-122.5-485.6-507.8-864.2-1004.5-991.2c-710.5-182.7-1463.4,269.5-1646,991.2c-80.2,316.3-17.8,750.6,147,1024.6c200.5,334.1,568,590.3,940,657.1C4926.5,3871.8,5236.1,3851.8,5403.2,3800.6z M6118.1,584.2c57.9-33.4,133.7-98,167.1-142.6c53.4-69,62.4-102.5,62.4-229.4s-8.9-160.4-62.4-229.4c-33.4-44.5-109.2-109.1-167.1-142.5l-104.7-62.4H5000H3986.5l-104.7,62.4c-155.9,91.3-225,193.8-236.1,345.2c-8.9,149.2,35.6,247.2,155.9,345.2c155.9,124.7,164.8,127,1231.7,120.3l980.1-4.5L6118.1,584.2z M6082.5-812.4c127-240.6,329.7-483.3,717.2-862l394.2-385.3H5000H2806l394.3,385.3c387.6,378.7,592.5,621.4,717.2,862l64.6,122.5H5000h1017.9L6082.5-812.4z M7857.7-2558.6c405.4-144.8,443.3-623.7,62.4-808.6l-124.7-62.4H5000H2204.6l-124.7,62.4c-378.7,184.9-343,657.1,60.1,804.1C2264.8-2516.3,7728.5-2514.1,7857.7-2558.6z M7911.2-4073.2c351.9-372,585.8-824.2,478.9-931.1c-42.3-42.3-6737.8-42.3-6780.2,0c-106.9,106.9,127,559.1,478.9,931.1l176,187.1H5000h2735.2L7911.2-4073.2z"/></g></g>
</svg>